<?xml version="1.0" encoding="UTF-8"?>
<svg xmlns="http://www.w3.org/2000/svg" xmlns:xlink="http://www.w3.org/1999/xlink" width="16pt" height="13pt" viewBox="0 0 16 13" version="1.1">
<g id="surface1">
<path style=" stroke:none;fill-rule:nonzero;fill:rgb(0%,0%,0%);fill-opacity:1;" d="M 15.199219 0.8125 L 0.800781 0.8125 C 0.359375 0.8125 0 1.175781 0 1.625 L 0 11.375 C 0 11.824219 0.359375 12.1875 0.800781 12.1875 L 15.199219 12.1875 C 15.640625 12.1875 16 11.824219 16 11.375 L 16 1.625 C 16 1.175781 15.640625 0.8125 15.199219 0.8125 Z M 4.398438 8.324219 L 4.398438 8.734375 C 4.398438 8.847656 4.308594 8.9375 4.199219 8.9375 L 3.800781 8.9375 C 3.691406 8.9375 3.601562 8.847656 3.601562 8.734375 L 3.601562 8.320312 C 3.316406 8.304688 3.042969 8.207031 2.816406 8.03125 C 2.71875 7.957031 2.714844 7.808594 2.800781 7.722656 L 3.09375 7.441406 C 3.164062 7.371094 3.265625 7.371094 3.347656 7.421875 C 3.445312 7.484375 3.554688 7.515625 3.667969 7.515625 L 4.371094 7.515625 C 4.535156 7.515625 4.667969 7.367188 4.667969 7.179688 C 4.667969 7.03125 4.578125 6.898438 4.449219 6.859375 L 3.324219 6.515625 C 2.859375 6.371094 2.53125 5.921875 2.53125 5.414062 C 2.53125 4.789062 3.007812 4.285156 3.601562 4.269531 L 3.601562 3.859375 C 3.601562 3.746094 3.6875 3.65625 3.800781 3.65625 L 4.199219 3.65625 C 4.308594 3.65625 4.398438 3.746094 4.398438 3.859375 L 4.398438 4.273438 C 4.683594 4.289062 4.957031 4.386719 5.183594 4.5625 C 5.28125 4.636719 5.285156 4.785156 5.199219 4.871094 L 4.90625 5.152344 C 4.835938 5.222656 4.730469 5.222656 4.652344 5.171875 C 4.554688 5.109375 4.445312 5.078125 4.332031 5.078125 L 3.628906 5.078125 C 3.464844 5.078125 3.332031 5.226562 3.332031 5.414062 C 3.332031 5.5625 3.421875 5.695312 3.550781 5.734375 L 4.675781 6.078125 C 5.140625 6.21875 5.464844 6.671875 5.464844 7.179688 C 5.464844 7.804688 4.992188 8.308594 4.398438 8.324219 Z M 10.398438 7.921875 C 10.398438 8.035156 10.308594 8.125 10.199219 8.125 L 7.398438 8.125 C 7.289062 8.125 7.199219 8.035156 7.199219 7.921875 L 7.199219 7.515625 C 7.199219 7.402344 7.289062 7.3125 7.398438 7.3125 L 10.199219 7.3125 C 10.308594 7.3125 10.398438 7.402344 10.398438 7.515625 Z M 14.398438 7.921875 C 14.398438 8.035156 14.308594 8.125 14.199219 8.125 L 12.199219 8.125 C 12.089844 8.125 12 8.035156 12 7.921875 L 12 7.515625 C 12 7.402344 12.089844 7.3125 12.199219 7.3125 L 14.199219 7.3125 C 14.308594 7.3125 14.398438 7.402344 14.398438 7.515625 Z M 14.398438 5.484375 C 14.398438 5.597656 14.308594 5.6875 14.199219 5.6875 L 7.398438 5.6875 C 7.289062 5.6875 7.199219 5.597656 7.199219 5.484375 L 7.199219 5.078125 C 7.199219 4.964844 7.289062 4.875 7.398438 4.875 L 14.199219 4.875 C 14.308594 4.875 14.398438 4.964844 14.398438 5.078125 Z M 14.398438 5.484375 "/>
</g>
</svg>
