<?xml version="1.0" encoding="UTF-8"?>
<svg xmlns="http://www.w3.org/2000/svg" xmlns:xlink="http://www.w3.org/1999/xlink" width="16pt" height="21pt" viewBox="0 0 16 21" version="1.1">
<g id="surface1">
<path style=" stroke:none;fill-rule:nonzero;fill:rgb(0%,0%,0%);fill-opacity:1;" d="M 8 6.5625 C 9.839844 6.5625 11.332031 5.09375 11.332031 3.28125 C 11.332031 1.46875 9.839844 0 8 0 C 6.160156 0 4.667969 1.46875 4.667969 3.28125 C 4.667969 5.09375 6.160156 6.5625 8 6.5625 Z M 5.773438 16.765625 L 6.839844 15.453125 L 4.277344 13.355469 L 2.367188 15.710938 C 1.890625 16.292969 1.878906 17.121094 2.332031 17.71875 L 4.332031 20.34375 C 4.664062 20.773438 5.164062 21 5.667969 21 C 6.011719 21 6.367188 20.894531 6.667969 20.671875 C 7.402344 20.128906 7.550781 19.101562 7 18.375 Z M 11.722656 13.355469 L 9.160156 15.453125 L 10.226562 16.765625 L 9 18.375 C 8.449219 19.101562 8.597656 20.128906 9.332031 20.671875 C 9.632812 20.894531 9.984375 21 10.332031 21 C 10.839844 21 11.339844 20.773438 11.667969 20.34375 L 13.667969 17.71875 C 14.121094 17.121094 14.109375 16.292969 13.632812 15.710938 Z M 15.695312 5.945312 C 15.167969 5.203125 14.128906 5.027344 13.375 5.546875 L 11.683594 6.714844 C 9.488281 8.230469 6.507812 8.230469 4.316406 6.714844 L 2.625 5.550781 C 1.871094 5.027344 0.832031 5.210938 0.304688 5.945312 C -0.226562 6.691406 -0.0429688 7.710938 0.707031 8.230469 L 2.398438 9.402344 C 3.109375 9.890625 3.875 10.257812 4.667969 10.546875 L 4.667969 11.8125 L 11.332031 11.8125 L 11.332031 10.550781 C 12.125 10.261719 12.890625 9.894531 13.601562 9.40625 L 15.292969 8.234375 C 16.046875 7.710938 16.226562 6.691406 15.695312 5.945312 Z M 15.695312 5.945312 "/>
</g>
</svg>
