<?xml version="1.0" encoding="UTF-8"?>
<svg xmlns="http://www.w3.org/2000/svg" xmlns:xlink="http://www.w3.org/1999/xlink" width="15pt" height="14pt" viewBox="0 0 15 14" version="1.1">
<g id="surface1">
<path style=" stroke:none;fill-rule:nonzero;fill:rgb(0%,0%,0%);fill-opacity:1;" d="M 7.761719 6.125 L 11.667969 7.589844 L 11.667969 13.5625 C 11.667969 13.804688 11.480469 14 11.25 14 L 9.582031 14 C 9.351562 14 9.167969 13.804688 9.167969 13.5625 L 9.167969 10.5 L 5 10.5 L 5 13.5625 C 5 13.804688 4.8125 14 4.582031 14 L 2.917969 14 C 2.6875 14 2.5 13.804688 2.5 13.5625 L 2.5 7.714844 C 1.53125 7.351562 0.832031 6.390625 0.832031 5.25 C 0.832031 4.765625 1.207031 4.375 1.667969 4.375 C 2.125 4.375 2.5 4.765625 2.5 5.25 C 2.5 5.734375 2.875 6.125 3.332031 6.125 Z M 14.167969 3.0625 L 14.167969 3.9375 C 14.167969 4.902344 13.421875 5.6875 12.5 5.6875 L 11.667969 5.6875 L 11.667969 6.660156 L 8.332031 5.410156 L 8.332031 1.3125 C 8.332031 0.921875 8.78125 0.726562 9.042969 1.003906 L 9.753906 1.75 L 11.152344 1.75 C 11.4375 1.75 11.769531 1.964844 11.898438 2.234375 L 12.082031 2.625 L 13.75 2.625 C 13.980469 2.625 14.167969 2.820312 14.167969 3.0625 Z M 11.25 3.0625 C 11.25 2.820312 11.0625 2.625 10.832031 2.625 C 10.601562 2.625 10.417969 2.820312 10.417969 3.0625 C 10.417969 3.304688 10.601562 3.5 10.832031 3.5 C 11.0625 3.5 11.25 3.304688 11.25 3.0625 Z M 11.25 3.0625 "/>
</g>
</svg>
