<?xml version="1.0" encoding="UTF-8"?>
<svg xmlns="http://www.w3.org/2000/svg" xmlns:xlink="http://www.w3.org/1999/xlink" width="16pt" height="16pt" viewBox="0 0 16 16" version="1.1">
<g id="surface1">
<path style=" stroke:none;fill-rule:nonzero;fill:rgb(0%,0%,0%);fill-opacity:1;" d="M 15.5 12 L 2 12 L 2 2.5 C 2 2.222656 1.777344 2 1.5 2 L 0.5 2 C 0.222656 2 0 2.222656 0 2.5 L 0 13 C 0 13.550781 0.449219 14 1 14 L 15.5 14 C 15.777344 14 16 13.777344 16 13.5 L 16 12.5 C 16 12.222656 15.777344 12 15.5 12 Z M 14.5 3 L 10.8125 3 C 10.140625 3 9.808594 3.808594 10.28125 4.28125 L 11.292969 5.292969 L 9 7.585938 L 6.707031 5.292969 C 6.316406 4.902344 5.683594 4.902344 5.292969 5.292969 L 3.148438 7.441406 C 2.953125 7.636719 2.953125 7.953125 3.148438 8.148438 L 3.851562 8.855469 C 4.046875 9.050781 4.367188 9.050781 4.5625 8.855469 L 6 7.414062 L 8.292969 9.707031 C 8.683594 10.097656 9.316406 10.097656 9.707031 9.707031 L 12.707031 6.707031 L 13.71875 7.71875 C 14.191406 8.191406 15 7.855469 15 7.1875 L 15 3.5 C 15 3.222656 14.777344 3 14.5 3 Z M 14.5 3 "/>
</g>
</svg>
