<?xml version="1.0" encoding="UTF-8"?>
<svg xmlns="http://www.w3.org/2000/svg" xmlns:xlink="http://www.w3.org/1999/xlink" width="16pt" height="21pt" viewBox="0 0 16 21" version="1.1">
<g id="surface1">
<path style=" stroke:none;fill-rule:nonzero;fill:rgb(0%,0%,0%);fill-opacity:1;" d="M 7.179688 20.578125 C 1.125 11.9375 0 11.050781 0 7.875 C 0 3.527344 3.582031 0 8 0 C 12.417969 0 16 3.527344 16 7.875 C 16 11.050781 14.875 11.9375 8.820312 20.578125 C 8.425781 21.140625 7.574219 21.140625 7.179688 20.578125 Z M 8 11.15625 C 9.839844 11.15625 11.332031 9.6875 11.332031 7.875 C 11.332031 6.0625 9.839844 4.59375 8 4.59375 C 6.160156 4.59375 4.667969 6.0625 4.667969 7.875 C 4.667969 9.6875 6.160156 11.15625 8 11.15625 Z M 8 11.15625 "/>
</g>
</svg>
